:SAMPLES-PER-SECOND 30
:FULLY-SPECIFIED
:DEGREES
366
root  -7.71129 38.3188 26.3844 -143.18 83.8313 -142.603
RightUpLeg  -20.2814 -5.88447 6.231
RightLeg  24.9006 1.73967 0.646962
RightFoot  -3.29714 0.211843 -3.32426
RightToes  -1.74624e-010 0 -3.6325e-017
Spine  4.97343 -0.69651 13.618
Spine1  5.57154 0.670806 -1.74388
HEad  -12.0808 5.12509 -9.72112
LeftShoulder1  -0.498493 4.7249 -34.6539
LeftArm  14.8229 8.56426 -43.5069
LeftForeArm  22.6967 -25.541 -4.2693
LeftHand  -0.0302048 6.40184 0.624955
RightShoulder  -0.831823 -5.80731 29.4843
RightArm  9.09613 -1.16152 43.648
RightForeArm  16.0874 6.89291 5.34618
RightHand  -0.0893592 3.05911 -1.4536
LeftUpLeg  3.0667 -1.05555 2.27689
LeftLeg  43.7567 -4.44845 -4.15353
LeftFoot  -4.09979 0.471506 -7.22115
LeftToes  2.27646e-009 -8.13696e-011 -1.44715e-011
367
root  -6.60439 38.3986 26.4585 -143.607 83.1593 -142.758
RightUpLeg  -18.2977 -6.56178 6.63214
RightLeg  25.4 1.86653 0.740136
RightFoot  -5.19886 0.13895 -3.2389
RightToes  -1.74624e-010 0 -3.6325e-017
Spine  5.27313 -0.430988 15.028
Spine1  5.48258 1.33617 -2.16485
HEad  -10.9534 3.9167 -8.96651
LeftShoulder1  -0.492615 4.71924 -34.3582
LeftArm  13.9155 9.84802 -43.2685
LeftForeArm  23.7894 -26.5597 -4.43243
LeftHand  -0.0395477 6.79134 0.402338
RightShoulder  -0.908766 -5.98309 30.0676
RightArm  10.2298 -0.104446 43.5539
RightForeArm  15.7037 7.92234 5.78819
RightHand  -0.0888264 3.22114 -1.43167
LeftUpLeg  -1.39712 -0.849707 3.80324
LeftLeg  51.775 -4.20398 -5.22084
LeftFoot  4.52213 1.01899 -7.51275
LeftToes  2.27646e-009 -8.13696e-011 -1.44715e-011
368
root  -5.51498 38.518 26.493 -146.441 82.8123 -145.179
RightUpLeg  -15.928 -7.56253 6.44243
RightLeg  25.4296 2.33577 1.09552
RightFoot  -6.82831 0.0798527 -3.21132
RightToes  -1.74624e-010 0 -3.6325e-017
Spine  5.49521 -0.246033 15.7271
Spine1  5.55324 1.77717 -2.26047
HEad  -10.3574 3.22265 -8.73439
LeftShoulder1  -0.541254 4.82302 -34.8592
LeftArm  13.1116 11.0522 -42.2572
LeftForeArm  22.9979 -27.5833 -4.7016
LeftHand  -0.0304699 6.42822 0.703049
RightShoulder  -0.856797 -5.8579 29.7907
RightArm  11.9712 1.07547 44.0026
RightForeArm  16.0219 9.4139 6.25359
RightHand  -0.0933595 4.24991 -1.38618
LeftUpLeg  -5.0613 -0.713421 4.58906
LeftLeg  57.4499 -3.02817 -4.60024
LeftFoot  4.84796 1.04817 -7.54639
LeftToes  2.27646e-009 -8.13696e-011 -1.44715e-011
369
root  -4.40144 38.7445 26.5051 -151.402 83.0898 -149.817
RightUpLeg  -12.994 -8.6173 5.46762
RightLeg  24.3438 3.16142 1.74295
RightFoot  -7.98445 0.0443536 -3.33765
RightToes  -1.74624e-010 0 -3.6325e-017
Spine  5.10466 0.0860461 15.7011
Spine1  6.25342 2.2691 -2.8071
HEad  -9.71495 2.23122 -8.22031
LeftShoulder1  -0.54157 4.83655 -34.4624
LeftArm  11.6625 12.2771 -42.0109
LeftForeArm  22.1389 -28.2723 -4.90355
LeftHand  -0.0224529 6.33223 1.26907
RightShoulder  -0.884013 -5.93389 29.7589
RightArm  14.2915 2.61662 44.7088
RightForeArm  15.7643 11.5624 6.33944
RightHand  -0.01659 3.68586 -0.478056
LeftUpLeg  -8.40135 -0.313199 4.5208
LeftLeg  60.4122 -2.20136 -3.64459
LeftFoot  3.67377 0.57782 -4.56546
LeftToes  2.27646e-009 -8.13696e-011 -1.44715e-011
370
root  -3.29978 38.9443 26.4822 -156.998 83.5494 -155.167
RightUpLeg  -10.253 -9.06132 4.23588
RightLeg  23.3972 3.84626 2.24995
RightFoot  -9.00338 -0.000504839 -2.96879
RightToes  -1.74624e-010 0 -3.6325e-017
Spine  4.78056 0.412926 15.6875
Spine1  6.61857 2.76578 -3.65152
HEad  -9.40986 1.9726 -8.6352
LeftShoulder1  -0.519027 4.7896 -34.1988
LeftArm  11.2162 13.1076 -41.6217
LeftForeArm  21.4375 -28.2839 -4.94481
LeftHand  -0.0144643 6.53777 1.9047
RightShoulder  -1.00655 -6.23829 30.2481
RightArm  17.2533 4.05543 44.979
RightForeArm  13.4312 14.2395 6.06622
RightHand  -0.0790145 3.38373 -1.29029
LeftUpLeg  -11.2527 0.033673 4.12797
LeftLeg  60.6587 -1.61902 -2.56474
LeftFoot  2.48049 0.436583 -3.72694
LeftToes  2.27646e-009 -8.13696e-011 -1.44715e-011
371
root  -2.20749 39.123 26.4296 -163.823 84.1739 -162.011
RightUpLeg  -7.69094 -9.52476 2.7679
RightLeg  22.2401 5.00103 2.90354
RightFoot  -10.0725 -0.03908 -2.54834
RightToes  -1.74624e-010 0 -3.6325e-017
Spine  4.73273 0.852547 15.5678
Spine1  6.1659 3.28003 -4.52473
HEad  -9.27948 2.98787 -9.98414
LeftShoulder1  -0.558599 4.87691 -34.5142
LeftArm  11.4217 13.7384 -40.71
LeftForeArm  21.6511 -27.9742 -4.86295
LeftHand  -0.0153512 6.8434 1.60473
RightShoulder  -0.929122 -6.07571 29.5554
RightArm  18.8269 4.01611 45.9619
RightForeArm  10.1756 17.1735 5.2807
RightHand  -0.0940321 3.68769 -1.4466
LeftUpLeg  -13.8062 0.0188955 3.30902
LeftLeg  58.3968 -1.70262 -2.45317
LeftFoot  0.903268 0.308168 -2.91999
LeftToes  2.27646e-009 -8.13696e-011 -1.44715e-011
372
root  -1.14891 39.2753 26.3587 -173.263 84.8463 -171.51
RightUpLeg  -5.25359 -10.2635 1.11452
RightLeg  21.1573 6.35506 3.52478
RightFoot  -11.1466 -0.072928 -1.89622
RightToes  -1.74624e-010 0 -3.6325e-017
Spine  4.99768 1.20344 15.1169
Spine1  5.35225 3.7024 -5.56767
HEad  -9.14377 3.21249 -9.87575
LeftShoulder1  -0.577588 4.93315 -34.228
LeftArm  11.3422 14.4822 -40.3905
LeftForeArm  21.8783 -27.042 -4.64182
LeftHand  -0.0198365 6.95265 1.21528
RightShoulder  -0.922616 -6.05762 29.5298
RightArm  20.3961 4.18907 46.2577
RightForeArm  7.61182 20.218 4.67915
RightHand  -0.184998 4.70231 -2.42406
LeftUpLeg  -15.7817 -0.0849867 2.2306
LeftLeg  53.7945 -2.22422 -2.78716
LeftFoot  -0.711917 0.190316 -2.00142
LeftToes  2.27646e-009 -8.13696e-011 -1.44715e-011
373
root  -0.0931132 39.3688 26.2941 179.984 85.1221 -178.489
RightUpLeg  -2.95641 -10.0616 0.135971
RightLeg  19.8525 6.64913 3.52472
RightFoot  -11.9561 -0.0900385 -1.82458
RightToes  -1.74624e-010 0 -3.6325e-017
Spine  4.68147 1.4822 14.5952
Spine1  5.14156 3.80897 -5.80636
HEad  -8.10324 2.8101 -8.88251
LeftShoulder1  -0.655237 5.10705 -34.7029
LeftArm  12.3841 14.5963 -39.6222
LeftForeArm  21.2296 -25.6466 -4.36231
LeftHand  -0.0253699 6.35553 0.959162
RightShoulder  -0.792568 -5.75265 28.6354
RightArm  20.5169 4.43424 47.2517
RightForeArm  7.44491 22.548 4.55312
RightHand  -0.232199 4.78911 -2.94312
LeftUpLeg  -17.4608 -0.178888 1.6862
LeftLeg  47.3949 -2.73915 -2.78337
LeftFoot  -1.606 0.116605 -1.26731
LeftToes  2.27646e-009 -8.13696e-011 -1.44715e-011
374
root  0.935096 39.4125 26.2159 172.648 85.146 174.166
RightUpLeg  -0.398137 -9.87429 -0.79349
RightLeg  18.311 6.68442 3.27986
RightFoot  -12.9566 -0.110643 -1.5923
RightToes  -1.74624e-010 0 -3.6325e-017
Spine  4.77816 1.69196 13.6559
Spine1  4.84185 3.80773 -5.74929
HEad  -8.95667 1.80118 -10.0891
LeftShoulder1  -0.572038 4.90083 -34.7671
LeftArm  12.775 14.9231 -39.3464
LeftForeArm  20.2361 -24.0166 -4.11421
LeftHand  -0.0312074 6.2443 0.309134
RightShoulder  -0.824384 -5.86513 28.2993
RightArm  20.7561 5.20938 47.3146
RightForeArm  8.14459 24.707 4.84925
RightHand  -0.18951 4.98289 -2.42147
LeftUpLeg  -18.1932 -0.110992 1.20013
LeftLeg  39.083 -2.76139 -2.05052
LeftFoot  -2.21858 0.156814 -1.78889
LeftToes  2.27646e-009 -8.13696e-011 -1.44715e-011
375
root  1.95188 39.4429 26.1164 167.407 85.2495 168.64
RightUpLeg  1.91357 -9.79519 -1.53629
RightLeg  16.5053 6.83938 3.09384
RightFoot  -13.5615 -0.129443 -1.95842
RightToes  -1.74624e-010 0 -3.6325e-017
Spine  4.74522 1.74621 13.0598
Spine1  4.42108 3.77991 -6.48266
HEad  -9.16615 2.30845 -9.20745
LeftShoulder1  -0.558352 4.88404 -34.2899
LeftArm  12.1907 15.3094 -39.553
LeftForeArm  20.0707 -21.9424 -4.19306
LeftHand  -0.0330169 6.81086 0.322095
RightShoulder  -0.857049 -5.90919 29.0354
RightArm  20.8421 5.87147 46.9742
RightForeArm  9.11239 26.0609 5.11423
RightHand  -0.211742 5.47112 -2.5767
LeftUpLeg  -18.506 0.359153 0.865683
LeftLeg  29.2414 -2.30826 -1.06928
LeftFoot  -1.70739 0.256485 -2.92223
LeftToes  2.27646e-009 -8.13696e-011 -1.44715e-011
